<?xml version="1.0" encoding="utf-8"?>
<svg xmlns="http://www.w3.org/2000/svg" xmlns:xlink="http://www.w3.org/1999/xlink" width="600" height="400" viewBox="0 0 600 400">
<defs>
  <clipPath id="clip00">
    <rect x="0" y="0" width="600" height="400"/>
  </clipPath>
</defs>
<polygon clip-path="url(#clip00)" points="
0,400 600,400 600,0 0,0 
  " fill="#ffffff" fill-opacity="1"/>
<polygon clip-path="url(#clip00)" points="
75,350 570,350 570,20 75,20 
  " fill="#ffffff" fill-opacity="1"/>
<defs>
  <clipPath id="clip01">
    <rect x="120" y="0" width="421" height="400"/>
  </clipPath>
</defs>
<defs>
  <clipPath id="clip02">
    <rect x="75" y="20" width="436" height="331"/>
  </clipPath>
</defs>
<g clip-path="url(#clip00)">
<text style="fill:#00002d; fill-opacity:1; font-family:Arial; font-size:14; text-anchor:start;" transform="rotate(0, 55.219, 23.8821)" x="55.219" y="23.8821">0</text>
</g>
<g clip-path="url(#clip00)">
<text style="fill:#00002d; fill-opacity:1; font-family:Arial; font-size:14; text-anchor:start;" transform="rotate(0, 47.7232, 118.168)" x="47.7232" y="118.168">20</text>
</g>
<g clip-path="url(#clip00)">
<text style="fill:#00002d; fill-opacity:1; font-family:Arial; font-size:14; text-anchor:start;" transform="rotate(0, 47.7232, 212.454)" x="47.7232" y="212.454">40</text>
</g>
<g clip-path="url(#clip00)">
<text style="fill:#00002d; fill-opacity:1; font-family:Arial; font-size:14; text-anchor:start;" transform="rotate(0, 47.7232, 306.739)" x="47.7232" y="306.739">60</text>
</g>
<polyline clip-path="url(#clip00)" style="stroke:#00002d; stroke-width:0.8; stroke-opacity:1; fill:none" points="
  75,20 75,20 66.8099,20 75,20 75,38.8571 70.9049,38.8571 75,38.8571 75,57.7143 70.9049,57.7143 75,57.7143 
  75,76.5714 70.9049,76.5714 75,76.5714 75,95.4286 70.9049,95.4286 75,95.4286 75,114.286 66.8099,114.286 75,114.286 75,133.143 
  70.9049,133.143 75,133.143 75,152 70.9049,152 75,152 75,170.857 70.9049,170.857 75,170.857 75,189.714 70.9049,189.714 
  75,189.714 75,208.571 66.8099,208.571 75,208.571 75,227.429 70.9049,227.429 75,227.429 75,246.286 70.9049,246.286 75,246.286 
  75,265.143 70.9049,265.143 75,265.143 75,284 70.9049,284 75,284 75,302.857 66.8099,302.857 75,302.857 75,321.714 
  70.9049,321.714 75,321.714 75,340.571 70.9049,340.571 75,340.571 75,350 
  "/>
<g clip-path="url(#clip00)">
<text style="fill:#00002d; fill-opacity:1; font-family:Arial; font-size:14; text-anchor:start;" transform="rotate(0, 71.2521, 374.472)" x="71.2521" y="374.472">0</text>
</g>
<g clip-path="url(#clip00)">
<text style="fill:#00002d; fill-opacity:1; font-family:Arial; font-size:14; text-anchor:start;" transform="rotate(0, 154.504, 374.472)" x="154.504" y="374.472">50</text>
</g>
<g clip-path="url(#clip00)">
<text style="fill:#00002d; fill-opacity:1; font-family:Arial; font-size:14; text-anchor:start;" transform="rotate(0, 237.756, 374.472)" x="237.756" y="374.472">100</text>
</g>
<g clip-path="url(#clip00)">
<text style="fill:#00002d; fill-opacity:1; font-family:Arial; font-size:14; text-anchor:start;" transform="rotate(0, 324.756, 374.472)" x="324.756" y="374.472">150</text>
</g>
<g clip-path="url(#clip00)">
<text style="fill:#00002d; fill-opacity:1; font-family:Arial; font-size:14; text-anchor:start;" transform="rotate(0, 411.756, 374.472)" x="411.756" y="374.472">200</text>
</g>
<g clip-path="url(#clip00)">
<text style="fill:#00002d; fill-opacity:1; font-family:Arial; font-size:14; text-anchor:start;" transform="rotate(0, 498.756, 374.472)" x="498.756" y="374.472">250</text>
</g>
<polyline clip-path="url(#clip00)" style="stroke:#00002d; stroke-width:0.8; stroke-opacity:1; fill:none" points="
  75,350 75,350 75,358.19 75,350 92.4,350 92.4,354.095 92.4,350 109.8,350 109.8,354.095 109.8,350 
  127.2,350 127.2,354.095 127.2,350 144.6,350 144.6,354.095 144.6,350 162,350 162,358.19 162,350 179.4,350 
  179.4,354.095 179.4,350 196.8,350 196.8,354.095 196.8,350 214.2,350 214.2,354.095 214.2,350 231.6,350 231.6,354.095 
  231.6,350 249,350 249,358.19 249,350 266.4,350 266.4,354.095 266.4,350 283.8,350 283.8,354.095 283.8,350 
  301.2,350 301.2,354.095 301.2,350 318.6,350 318.6,354.095 318.6,350 336,350 336,358.19 336,350 353.4,350 
  353.4,354.095 353.4,350 370.8,350 370.8,354.095 370.8,350 388.2,350 388.2,354.095 388.2,350 405.6,350 405.6,354.095 
  405.6,350 423,350 423,358.19 423,350 440.4,350 440.4,354.095 440.4,350 457.8,350 457.8,354.095 457.8,350 
  475.2,350 475.2,354.095 475.2,350 492.6,350 492.6,354.095 492.6,350 510,350 510,358.19 510,350 
  
  "/>
<polyline clip-path="url(#clip00)" style="stroke:#00002d; stroke-width:0.8; stroke-opacity:1; fill:none" points="
  510,20 510,20 518.19,20 510,20 510,38.8571 514.095,38.8571 510,38.8571 510,57.7143 514.095,57.7143 510,57.7143 
  510,76.5714 514.095,76.5714 510,76.5714 510,95.4286 514.095,95.4286 510,95.4286 510,114.286 518.19,114.286 510,114.286 510,133.143 
  514.095,133.143 510,133.143 510,152 514.095,152 510,152 510,170.857 514.095,170.857 510,170.857 510,189.714 514.095,189.714 
  510,189.714 510,208.571 518.19,208.571 510,208.571 510,227.429 514.095,227.429 510,227.429 510,246.286 514.095,246.286 510,246.286 
  510,265.143 514.095,265.143 510,265.143 510,284 514.095,284 510,284 510,302.857 518.19,302.857 510,302.857 510,321.714 
  514.095,321.714 510,321.714 510,340.571 514.095,340.571 510,340.571 510,350 
  "/>
<polyline clip-path="url(#clip00)" style="stroke:#00002d; stroke-width:0.8; stroke-opacity:1; fill:none" points="
  75,20 75,20 75,11.8099 75,20 92.4,20 92.4,15.9049 92.4,20 109.8,20 109.8,15.9049 109.8,20 
  127.2,20 127.2,15.9049 127.2,20 144.6,20 144.6,15.9049 144.6,20 162,20 162,11.8099 162,20 179.4,20 
  179.4,15.9049 179.4,20 196.8,20 196.8,15.9049 196.8,20 214.2,20 214.2,15.9049 214.2,20 231.6,20 231.6,15.9049 
  231.6,20 249,20 249,11.8099 249,20 266.4,20 266.4,15.9049 266.4,20 283.8,20 283.8,15.9049 283.8,20 
  301.2,20 301.2,15.9049 301.2,20 318.6,20 318.6,15.9049 318.6,20 336,20 336,11.8099 336,20 353.4,20 
  353.4,15.9049 353.4,20 370.8,20 370.8,15.9049 370.8,20 388.2,20 388.2,15.9049 388.2,20 405.6,20 405.6,15.9049 
  405.6,20 423,20 423,11.8099 423,20 440.4,20 440.4,15.9049 440.4,20 457.8,20 457.8,15.9049 457.8,20 
  475.2,20 475.2,15.9049 475.2,20 492.6,20 492.6,15.9049 492.6,20 510,20 510,11.8099 510,20 
  
  "/>
</svg>
